<?xml version="1.0" encoding="utf-8"?>
<!-- Generator: Adobe Illustrator 25.4.1, SVG Export Plug-In . SVG Version: 6.00 Build 0)  -->
<svg version="1.1" id="Layer_1" xmlns="http://www.w3.org/2000/svg" xmlns:xlink="http://www.w3.org/1999/xlink" x="0px" y="0px"
	 viewBox="0 0 115.95 81.23" enable-background="new 0 0 115.95 81.23" xml:space="preserve">
<polyline fill="none" stroke="#ED1C24" stroke-miterlimit="10" points="6615.81,-1942.87 6595.35,-1982.77 6348.9,-2463.42 
	6325.67,-2508.72 "/>
<polyline fill="none" stroke="#ED1C24" stroke-miterlimit="10" points="6325.31,-1496.37 6299.26,-1547.19 6052.05,-2029.3 
	6035.17,-2062.22 "/>
<g>
	<path fill="none" stroke="#000000" stroke-width="0.0373" stroke-miterlimit="10" d="M53.9,38.57"/>
	<path d="M36.37,46.61c-0.19-0.18-0.43-0.27-0.71-0.27c-0.28,0.01-0.52,0.1-0.73,0.3c-0.86,0.86-1.8,1.48-2.82,1.87
		c-1.02,0.39-2.09,0.58-3.2,0.56c-1.21,0-2.32-0.23-3.35-0.69c-1.03-0.46-1.92-1.07-2.66-1.85c-0.75-0.77-1.33-1.67-1.76-2.7
		c-0.43-1.02-0.64-2.1-0.64-3.23c0-1.17,0.22-2.28,0.66-3.31c0.44-1.03,1.04-1.93,1.81-2.7c0.76-0.76,1.66-1.37,2.69-1.81
		c1.03-0.44,2.12-0.66,3.28-0.66c1.11,0,2.18,0.21,3.21,0.63c1.03,0.42,1.97,1.05,2.82,1.89c0.18,0.19,0.42,0.29,0.7,0.28
		c0.28-0.01,0.53-0.1,0.73-0.3c0.19-0.2,0.29-0.44,0.29-0.71c0-0.27-0.1-0.51-0.31-0.71c-1.03-1.03-2.19-1.81-3.48-2.34
		c-1.29-0.53-2.61-0.79-3.96-0.79c-1.02,0-1.99,0.13-2.9,0.4c-0.91,0.26-1.75,0.63-2.53,1.11c-0.78,0.47-1.48,1.04-2.11,1.69
		c-0.62,0.66-1.15,1.37-1.59,2.15c-0.44,0.77-0.77,1.6-1.01,2.49c-0.24,0.88-0.36,1.78-0.36,2.7c0,0.97,0.12,1.9,0.37,2.79
		c0.25,0.89,0.6,1.73,1.05,2.51c0.45,0.78,1,1.49,1.63,2.13c0.63,0.64,1.34,1.19,2.11,1.64c0.77,0.45,1.61,0.8,2.5,1.06
		c0.89,0.25,1.82,0.38,2.78,0.38c1.37,0,2.69-0.25,3.97-0.75c1.28-0.5,2.45-1.28,3.5-2.33c0.18-0.18,0.28-0.42,0.28-0.71
		C36.68,47.05,36.58,46.8,36.37,46.61z"/>
	<path d="M58.27,36.52c-0.55-1.27-1.31-2.38-2.26-3.33c-0.95-0.95-2.07-1.7-3.34-2.25c-1.28-0.55-2.64-0.82-4.09-0.82
		c-0.97,0-1.9,0.12-2.8,0.37c-0.9,0.25-1.73,0.6-2.51,1.06c-0.77,0.46-1.48,1.01-2.11,1.65c-0.63,0.64-1.18,1.35-1.63,2.12
		c-0.45,0.77-0.8,1.61-1.05,2.5c-0.25,0.89-0.37,1.82-0.37,2.79c0,0.97,0.12,1.9,0.37,2.8c0.25,0.9,0.6,1.73,1.05,2.51
		c0.45,0.77,1,1.48,1.63,2.13c0.63,0.65,1.34,1.19,2.11,1.65c0.77,0.45,1.61,0.8,2.51,1.06c0.9,0.25,1.83,0.38,2.8,0.38
		c0.97,0,1.9-0.13,2.8-0.38c0.9-0.25,1.73-0.61,2.51-1.06c0.77-0.45,1.48-1,2.13-1.65c0.65-0.65,1.19-1.36,1.65-2.13
		c0.45-0.77,0.8-1.61,1.06-2.51c0.25-0.9,0.38-1.83,0.38-2.8C59.1,39.15,58.82,37.79,58.27,36.52z M56.39,43.92
		c-0.44,1.03-1.04,1.92-1.81,2.69c-0.76,0.76-1.66,1.37-2.69,1.81c-1.03,0.44-2.13,0.66-3.3,0.66c-1.18,0-2.29-0.22-3.32-0.66
		c-1.03-0.44-1.92-1.04-2.68-1.81c-0.76-0.76-1.36-1.66-1.8-2.69c-0.44-1.03-0.66-2.13-0.66-3.32c0-1.17,0.22-2.27,0.66-3.29
		c0.44-1.02,1.04-1.91,1.8-2.68c0.76-0.76,1.65-1.37,2.68-1.81c1.03-0.44,2.13-0.66,3.32-0.66c1.17,0,2.27,0.22,3.3,0.66
		c1.03,0.44,1.92,1.04,2.69,1.81c0.76,0.76,1.37,1.66,1.81,2.68c0.44,1.02,0.66,2.12,0.66,3.29C57.05,41.79,56.83,42.9,56.39,43.92z
		"/>
	<path d="M77.46,49.18c-0.19-0.2-0.43-0.3-0.71-0.3H63.62l13.77-16.93c0.18-0.22,0.27-0.46,0.25-0.73c-0.02-0.27-0.13-0.5-0.35-0.69
		c-0.18-0.16-0.41-0.25-0.68-0.27H61.95c-0.28,0-0.52,0.1-0.73,0.3c-0.2,0.2-0.31,0.44-0.31,0.72c0,0.28,0.1,0.52,0.29,0.72
		c0.19,0.2,0.43,0.3,0.71,0.3h12.56L60.74,49.22c-0.19,0.23-0.28,0.48-0.25,0.76c0.03,0.28,0.15,0.51,0.36,0.69
		c0.16,0.16,0.36,0.24,0.58,0.24h15.32c0.28,0,0.52-0.1,0.71-0.3c0.19-0.2,0.29-0.44,0.29-0.72C77.75,49.62,77.66,49.38,77.46,49.18
		z"/>
	<path d="M95.46,31.17c-0.05-0.27-0.18-0.48-0.4-0.65c-0.22-0.17-0.45-0.25-0.71-0.23c-0.26,0.02-0.48,0.13-0.66,0.35l-4.53,6.74
		l1.03,2l5.02-7.38C95.43,31.71,95.51,31.43,95.46,31.17z M81.59,30.67c-0.18-0.23-0.41-0.35-0.69-0.36
		c-0.28-0.02-0.53,0.07-0.74,0.25c-0.22,0.19-0.33,0.43-0.36,0.71c-0.02,0.28,0.06,0.53,0.24,0.74l6.62,9.6v8.31
		c0,0.28,0.1,0.52,0.29,0.71c0.19,0.19,0.42,0.29,0.69,0.29c0.27,0,0.54-0.1,0.73-0.28c0.21-0.2,0.31-0.44,0.31-0.72v-8.33v0
		c-0.68-1.33-1.45-2.62-2.29-3.86L81.59,30.67z"/>
</g>
<g>
</g>
<g>
</g>
<g>
</g>
<g>
</g>
<g>
</g>
<g>
</g>
</svg>
