<?xml version="1.0" encoding="utf-8"?>
<!-- Generator: Adobe Illustrator 25.4.1, SVG Export Plug-In . SVG Version: 6.00 Build 0)  -->
<svg version="1.1" id="Layer_1" xmlns="http://www.w3.org/2000/svg" xmlns:xlink="http://www.w3.org/1999/xlink" x="0px" y="0px"
	 viewBox="0 0 208.95 81.23" enable-background="new 0 0 208.95 81.23" xml:space="preserve">
<path fill="none" stroke="#000000" stroke-width="0.0887" stroke-miterlimit="10" d="M98.36,35.76"/>
<polyline fill="none" stroke="#ED1C24" stroke-miterlimit="10" points="6660.81,-1942.87 6640.35,-1982.77 6393.9,-2463.42 
	6370.67,-2508.72 "/>
<polyline fill="none" stroke="#ED1C24" stroke-miterlimit="10" points="6370.31,-1496.37 6344.26,-1547.19 6097.05,-2029.3 
	6080.17,-2062.22 "/>
<g>
	<path d="M56.7,54.87c-0.46-0.43-1.02-0.65-1.69-0.63c-0.67,0.01-1.24,0.25-1.73,0.71c-2.05,2.05-4.29,3.53-6.72,4.45
		c-2.43,0.92-4.96,1.37-7.6,1.34c-2.87,0-5.52-0.54-7.96-1.63c-2.44-1.09-4.55-2.55-6.33-4.39c-1.78-1.84-3.17-3.98-4.18-6.41
		c-1.01-2.43-1.52-4.99-1.52-7.67c0-2.79,0.52-5.41,1.57-7.87c1.05-2.46,2.48-4.59,4.3-6.41c1.82-1.82,3.95-3.25,6.39-4.3
		c2.44-1.05,5.05-1.57,7.81-1.57c2.63,0,5.18,0.5,7.64,1.5c2.46,1,4.69,2.49,6.72,4.49c0.43,0.46,0.99,0.68,1.67,0.67
		c0.68-0.01,1.26-0.25,1.75-0.71c0.46-0.49,0.69-1.05,0.69-1.69c0-0.64-0.24-1.2-0.73-1.69c-2.46-2.46-5.21-4.31-8.27-5.56
		c-3.06-1.25-6.2-1.88-9.42-1.88c-2.43,0-4.73,0.31-6.89,0.94c-2.16,0.63-4.17,1.5-6.02,2.63c-1.86,1.13-3.52,2.47-5.01,4.03
		c-1.48,1.56-2.74,3.26-3.78,5.1c-1.04,1.84-1.84,3.81-2.4,5.91c-0.56,2.1-0.84,4.23-0.84,6.41c0,2.3,0.29,4.52,0.88,6.64
		c0.59,2.12,1.42,4.11,2.49,5.97c1.07,1.86,2.37,3.54,3.88,5.07c1.51,1.52,3.19,2.82,5.03,3.89c1.84,1.07,3.82,1.91,5.95,2.51
		c2.12,0.6,4.32,0.9,6.6,0.9c3.25,0,6.4-0.59,9.44-1.78c3.04-1.19,5.82-3.04,8.33-5.54c0.43-0.43,0.66-1,0.67-1.69
		C57.42,55.91,57.18,55.33,56.7,54.87z"/>
	<path d="M108.75,30.89c-1.32-3.02-3.11-5.66-5.37-7.92c-2.26-2.26-4.91-4.05-7.94-5.35c-3.03-1.3-6.27-1.96-9.73-1.96
		c-2.3,0-4.52,0.29-6.66,0.88c-2.14,0.59-4.13,1.43-5.97,2.51c-1.84,1.09-3.52,2.39-5.03,3.91c-1.51,1.52-2.8,3.2-3.88,5.05
		c-1.07,1.84-1.91,3.82-2.49,5.95c-0.59,2.12-0.88,4.34-0.88,6.64c0,2.3,0.29,4.52,0.88,6.66c0.59,2.14,1.42,4.13,2.49,5.97
		c1.07,1.84,2.37,3.53,3.88,5.07c1.51,1.53,3.19,2.84,5.03,3.91c1.84,1.07,3.83,1.91,5.97,2.51c2.14,0.6,4.36,0.9,6.66,0.9
		c2.3,0,4.52-0.3,6.66-0.9c2.14-0.6,4.13-1.44,5.97-2.51c1.84-1.07,3.53-2.38,5.07-3.91c1.53-1.53,2.84-3.22,3.91-5.07
		c1.07-1.84,1.91-3.83,2.51-5.97c0.6-2.14,0.9-4.36,0.9-6.66C110.72,37.14,110.06,33.91,108.75,30.89z M104.28,48.48
		c-1.05,2.44-2.48,4.57-4.3,6.39c-1.82,1.82-3.95,3.25-6.39,4.3c-2.44,1.05-5.06,1.57-7.85,1.57c-2.81,0-5.44-0.52-7.89-1.57
		c-2.44-1.05-4.57-2.48-6.37-4.3c-1.8-1.82-3.23-3.95-4.28-6.39c-1.05-2.44-1.57-5.07-1.57-7.89c0-2.79,0.52-5.4,1.57-7.83
		c1.05-2.43,2.48-4.55,4.28-6.37c1.8-1.82,3.93-3.25,6.37-4.3c2.44-1.05,5.07-1.57,7.89-1.57c2.79,0,5.4,0.52,7.85,1.57
		c2.44,1.05,4.57,2.48,6.39,4.3c1.82,1.82,3.25,3.94,4.3,6.37c1.05,2.43,1.57,5.04,1.57,7.83
		C105.85,43.41,105.33,46.04,104.28,48.48z"/>
	<path d="M154.39,60.99c-0.46-0.47-1.02-0.71-1.69-0.71h-31.24l32.73-40.25c0.43-0.51,0.63-1.09,0.59-1.75
		c-0.04-0.65-0.31-1.2-0.83-1.63c-0.44-0.38-0.97-0.6-1.61-0.65h-34.84c-0.67,0-1.24,0.24-1.73,0.71c-0.49,0.47-0.73,1.04-0.73,1.71
		c0,0.67,0.23,1.23,0.69,1.71c0.46,0.47,1.02,0.71,1.69,0.71h29.85l-32.66,40.25c-0.46,0.54-0.66,1.14-0.59,1.8
		c0.06,0.67,0.35,1.22,0.86,1.65c0.38,0.38,0.84,0.58,1.38,0.58h36.42c0.66,0,1.23-0.24,1.69-0.71c0.46-0.47,0.69-1.04,0.69-1.71
		C155.08,62.03,154.85,61.46,154.39,60.99z"/>
	<path d="M194.78,18.15c-0.12-0.64-0.43-1.15-0.94-1.53c-0.51-0.41-1.07-0.59-1.69-0.56c-0.61,0.04-1.14,0.31-1.57,0.83L179.8,32.9
		l2.44,4.75l11.95-17.55C194.7,19.44,194.89,18.79,194.78,18.15z M161.8,16.96c-0.44-0.54-0.98-0.83-1.65-0.86
		c-0.67-0.04-1.25,0.16-1.76,0.59c-0.51,0.46-0.79,1.02-0.84,1.69c-0.05,0.67,0.14,1.25,0.58,1.77l15.73,22.83v19.76
		c0,0.67,0.23,1.23,0.69,1.69c0.45,0.45,0.99,0.68,1.64,0.69c0.64,0.01,1.27-0.23,1.74-0.67c0.49-0.46,0.73-1.03,0.73-1.71V42.94v0
		c-1.63-3.17-3.44-6.24-5.45-9.19L161.8,16.96z"/>
</g>
<g>
</g>
<g>
</g>
<g>
</g>
<g>
</g>
<g>
</g>
<g>
</g>
</svg>
