<?xml version="1.0" encoding="utf-8"?>
<!-- Generator: Adobe Illustrator 25.4.1, SVG Export Plug-In . SVG Version: 6.00 Build 0)  -->
<svg version="1.1" id="Layer_1" xmlns="http://www.w3.org/2000/svg" xmlns:xlink="http://www.w3.org/1999/xlink" x="100px" y="24px"
	 viewBox="0 0 1080 1080" enable-background="new 0 0 1080 1080" xml:space="preserve">
<path fill="none" stroke="#000000" stroke-width="0.0887" stroke-miterlimit="10" d="M547.78,494.29"/>
<polyline fill="none" stroke="#ED1C24" stroke-miterlimit="10" points="7106.34,-1461.48 7085.88,-1501.38 6839.42,-1982.03 
	6816.19,-2027.33 "/>
<polyline fill="none" stroke="#ED1C24" stroke-miterlimit="10" points="6815.84,-1014.98 6789.78,-1065.8 6542.57,-1547.91 
	6525.69,-1580.83 "/>
<g>
	<path d="M273.16,619.61c-2.57-2.43-5.72-3.61-9.43-3.54c-3.72,0.08-6.93,1.39-9.64,3.97c-11.43,11.43-23.93,19.72-37.5,24.86
		c-13.58,5.14-27.72,7.64-42.43,7.5c-16,0-30.83-3.03-44.47-9.11c-13.65-6.07-25.43-14.25-35.36-24.54
		c-9.93-10.29-17.72-22.21-23.36-35.79c-5.65-13.57-8.46-27.86-8.46-42.86c0-15.57,2.93-30.22,8.79-43.93
		c5.86-13.72,13.86-25.64,24-35.79c10.14-10.14,22.04-18.14,35.68-24c13.64-5.86,28.18-8.79,43.61-8.79
		c14.71,0,28.93,2.79,42.65,8.36c13.72,5.57,26.22,13.93,37.5,25.07c2.43,2.57,5.53,3.82,9.32,3.75c3.78-0.07,7.03-1.39,9.75-3.96
		c2.57-2.71,3.86-5.86,3.86-9.43c0-3.57-1.36-6.71-4.07-9.43c-13.72-13.72-29.11-24.07-46.18-31.07c-17.07-7-34.61-10.5-52.61-10.5
		c-13.58,0-26.4,1.75-38.47,5.25c-12.07,3.5-23.29,8.39-33.65,14.68C92.32,426.6,83,434.1,74.72,442.81
		c-8.29,8.72-15.32,18.22-21.11,28.5c-5.79,10.29-10.25,21.29-13.39,33c-3.14,11.72-4.72,23.65-4.72,35.79
		c0,12.86,1.64,25.22,4.93,37.07c3.28,11.86,7.93,22.97,13.93,33.32c6,10.36,13.21,19.79,21.64,28.29
		c8.43,8.5,17.79,15.75,28.07,21.75c10.29,6,21.36,10.68,33.22,14.04c11.86,3.35,24.14,5.04,36.86,5.04
		c18.14,0,35.72-3.32,52.72-9.97c17-6.64,32.5-16.96,46.5-30.97c2.43-2.43,3.68-5.57,3.75-9.43
		C277.2,625.4,275.88,622.19,273.16,619.61z"/>
	<path d="M563.86,485.67c-7.36-16.86-17.36-31.61-30-44.25c-12.64-12.64-27.43-22.61-44.36-29.9
		c-16.93-7.29-35.04-10.93-54.33-10.93c-12.86,0-25.25,1.65-37.18,4.93c-11.93,3.29-23.04,7.97-33.32,14.04
		c-10.29,6.07-19.65,13.36-28.07,21.86c-8.43,8.5-15.64,17.89-21.64,28.18c-6,10.29-10.65,21.36-13.93,33.22
		c-3.29,11.86-4.93,24.22-4.93,37.07c0,12.86,1.64,25.25,4.93,37.18c3.28,11.93,7.93,23.04,13.93,33.32
		c6,10.29,13.21,19.72,21.64,28.29c8.43,8.57,17.79,15.86,28.07,21.86c10.29,6,21.39,10.68,33.32,14.04
		c11.93,3.35,24.32,5.04,37.18,5.04c12.86,0,25.25-1.68,37.18-5.04c11.93-3.36,23.04-8.04,33.32-14.04
		c10.29-6,19.72-13.29,28.29-21.86c8.57-8.57,15.86-18,21.86-28.29c6-10.29,10.68-21.39,14.04-33.32
		c3.35-11.93,5.04-24.32,5.04-37.18C574.9,520.61,571.22,502.53,563.86,485.67z M538.89,583.93c-5.86,13.64-13.86,25.54-24,35.68
		c-10.15,10.15-22.04,18.15-35.68,24c-13.64,5.86-28.25,8.79-43.82,8.79c-15.72,0-30.4-2.93-44.04-8.79
		c-13.64-5.86-25.5-13.85-35.57-24c-10.07-10.14-18.04-22.04-23.9-35.68c-5.86-13.64-8.79-28.32-8.79-44.04
		c0-15.57,2.93-30.14,8.79-43.72c5.86-13.57,13.82-25.43,23.9-35.57c10.07-10.14,21.93-18.14,35.57-24
		c13.64-5.86,28.32-8.79,44.04-8.79c15.57,0,30.18,2.93,43.82,8.79c13.64,5.86,25.54,13.86,35.68,24c10.14,10.15,18.14,22,24,35.57
		c5.86,13.57,8.79,28.15,8.79,43.72C547.68,555.61,544.75,570.29,538.89,583.93z"/>
	<path d="M818.77,653.8c-2.57-2.64-5.72-3.96-9.43-3.96H634.9l182.8-224.8c2.43-2.86,3.54-6.11,3.32-9.75
		c-0.21-3.64-1.75-6.68-4.61-9.11c-2.43-2.14-5.43-3.35-9-3.64H612.83c-3.72,0-6.93,1.32-9.64,3.96c-2.72,2.65-4.07,5.82-4.07,9.54
		c0,3.72,1.28,6.89,3.86,9.54c2.57,2.64,5.71,3.96,9.43,3.96h166.73l-182.37,224.8c-2.57,3-3.68,6.36-3.32,10.07
		c0.35,3.72,1.96,6.79,4.82,9.22c2.14,2.14,4.72,3.21,7.72,3.21h203.37c3.71,0,6.86-1.32,9.43-3.96c2.57-2.64,3.86-5.82,3.86-9.54
		C822.63,659.62,821.34,656.44,818.77,653.8z"/>
	<path d="M1044.32,414.53c-0.64-3.57-2.39-6.43-5.25-8.57c-2.86-2.28-6-3.32-9.43-3.11c-3.43,0.21-6.36,1.75-8.79,4.61l-60.18,89.47
		l13.61,26.54l66.71-98.01C1043.86,421.74,1044.97,418.1,1044.32,414.53z M860.13,407.88c-2.43-3-5.5-4.61-9.22-4.82
		c-3.72-0.21-7,0.89-9.86,3.32c-2.86,2.57-4.43,5.72-4.71,9.43c-0.29,3.72,0.78,7,3.21,9.86l87.86,127.51v110.37
		c0,3.72,1.28,6.86,3.86,9.43c2.5,2.5,5.55,3.79,9.13,3.86c3.56,0.07,7.11-1.27,9.7-3.73c2.73-2.59,4.1-5.78,4.1-9.56V553l0,0
		c-9.08-17.71-19.24-34.85-30.41-51.31L860.13,407.88z"/>
</g>
</svg>
