<svg version="1.1" id="Layer_1" xmlns="http://www.w3.org/2000/svg" xmlns:xlink="http://www.w3.org/1999/xlink" x="0px" y="0px"
	 width="254.424px" height="60.719px" viewBox="0 0 254.424 60.719" enable-background="new 0 0 254.424 60.719"
	 xml:space="preserve">
<g>
	<path fill="#050505" d="M58.294,30.996c0,3.228,0.601,6.247,1.806,9.054c1.203,2.805,2.84,5.242,4.908,7.333
		c2.067,2.085,4.507,3.729,7.31,4.933c2.803,1.203,5.819,1.805,9.051,1.805c2.611,0,5.034-0.371,7.266-1.104
		c2.229-0.731,4.22-1.778,5.966-3.149c1.745-1.367,3.215-3.009,4.403-4.933c1.188-1.921,2.063-4.071,2.623-6.451H88.061
		c-0.763,0-1.41-0.272-1.938-0.815c-0.529-0.543-0.792-1.193-0.792-1.959c0-0.733,0.266-1.373,0.792-1.916
		c0.528-0.543,1.176-0.809,1.938-0.809h16.689c0.822,0.03,1.519,0.287,2.094,0.793c0.572,0.5,0.844,1.158,0.814,1.987
		c-0.322,3.399-1.212,6.569-2.663,9.489c-1.454,2.922-3.339,5.455-5.659,7.597s-5.015,3.819-8.08,5.044
		c-3.069,1.219-6.379,1.825-9.932,1.825c-2.643,0-5.191-0.343-7.644-1.019c-2.451-0.674-4.733-1.637-6.848-2.885
		c-2.113-1.242-4.037-2.74-5.767-4.486c-1.733-1.75-3.216-3.689-4.451-5.816c-1.232-2.125-2.187-4.411-2.862-6.844
		c-0.675-2.438-1.012-4.98-1.012-7.619c0-2.583,0.33-5.099,0.99-7.531c0.66-2.438,1.602-4.719,2.817-6.849
		c1.218-2.128,2.692-4.074,4.428-5.834c1.729-1.768,3.653-3.278,5.768-4.542c2.114-1.256,4.396-2.233,6.849-2.928
		c2.451-0.69,5.012-1.035,7.686-1.035c3.844,0,7.5,0.713,10.966,2.138c3.462,1.428,6.618,3.565,9.467,6.406
		c0.588,0.559,0.871,1.206,0.858,1.939c-0.015,0.735-0.285,1.379-0.814,1.938c-0.528,0.526-1.176,0.803-1.938,0.813
		c-0.763,0.015-1.424-0.262-1.983-0.813c-2.289-2.261-4.865-3.966-7.729-5.104c-2.861-1.146-5.791-1.717-8.784-1.717
		c-3.114,0-6.063,0.586-8.854,1.76c-2.79,1.176-5.235,2.797-7.334,4.867c-2.099,2.075-3.764,4.515-4.996,7.337
		C58.909,24.696,58.294,27.735,58.294,30.996z"/>
	<path fill="#050505" d="M151.896,4.616c3.479,1.496,6.521,3.545,9.121,6.144c2.598,2.599,4.652,5.63,6.164,9.092
		c1.51,3.464,2.266,7.173,2.266,11.139c0,2.642-0.344,5.194-1.032,7.64c-0.69,2.453-1.651,4.732-2.886,6.849
		c-1.231,2.115-2.729,4.052-4.486,5.813c-1.768,1.766-3.707,3.264-5.816,4.492c-2.109,1.236-4.396,2.201-6.844,2.883
		c-2.453,0.689-4.996,1.035-7.645,1.035c-2.639,0-5.188-0.351-7.641-1.035c-2.451-0.689-4.734-1.651-6.849-2.883
		c-2.111-1.233-4.035-2.731-5.767-4.492c-1.734-1.762-3.216-3.698-4.451-5.813c-1.232-2.114-2.187-4.396-2.861-6.849
		c-0.676-2.445-1.014-4.996-1.014-7.64c0-2.639,0.338-5.182,1.014-7.619c0.675-2.433,1.629-4.708,2.861-6.821
		c1.235-2.115,2.715-4.043,4.451-5.791c1.729-1.748,3.653-3.246,5.767-4.492c2.114-1.244,4.396-2.206,6.849-2.885
		c2.453-0.675,5.002-1.012,7.641-1.012C144.694,2.37,148.416,3.118,151.896,4.616z M131.728,9.768
		c-2.806,1.204-5.242,2.845-7.31,4.933c-2.071,2.085-3.708,4.522-4.909,7.31c-1.204,2.79-1.805,5.786-1.805,8.981
		c0,3.228,0.601,6.247,1.805,9.054c1.204,2.805,2.841,5.242,4.909,7.332c2.067,2.084,4.507,3.724,7.31,4.933
		c2.803,1.203,5.821,1.806,9.049,1.806c3.203,0,6.205-0.603,9.01-1.806c2.801-1.209,5.248-2.849,7.333-4.933
		c2.079-2.09,3.726-4.527,4.93-7.332c1.203-2.809,1.808-5.827,1.808-9.054c0-3.196-0.604-6.192-1.808-8.981
		c-1.204-2.788-2.851-5.225-4.93-7.31c-2.085-2.09-4.532-3.729-7.333-4.933c-2.805-1.208-5.807-1.805-9.01-1.805
		C137.549,7.962,134.532,8.566,131.728,9.768z"/>
	<path fill="#050505" d="M191.381,8.27V56.36c0,0.768-0.267,1.422-0.795,1.963c-0.528,0.545-1.188,0.812-1.983,0.812
		c-0.762,0-1.396-0.267-1.892-0.812c-0.499-0.541-0.748-1.195-0.748-1.963V8.27h-13.696c-0.77,0-1.414-0.27-1.939-0.813
		c-0.528-0.544-0.795-1.196-0.795-1.959c0-0.765,0.267-1.41,0.795-1.938c0.525-0.529,1.171-0.793,1.939-0.793h33.205
		c0.762,0,1.41,0.267,1.938,0.811c0.522,0.544,0.791,1.196,0.791,1.959c0,0.798-0.269,1.45-0.791,1.964
		c-0.528,0.511-1.179,0.771-1.938,0.771h-14.091V8.27z"/>
	<path fill="#050505" d="M52.173,55.261l-4.053-9.43l-4.241-9.864L17.38,35.972l10.306-24.354l3.675,8.644l1.696,3.931
		c0.314,0.687,0.831,1.168,1.55,1.44c0.716,0.27,1.42,0.254,2.106-0.06c0.689-0.32,1.14-0.811,1.354-1.486
		c0.214-0.672,0.168-1.367-0.146-2.082l-3.995-9.203l-3.594-8.359c-0.234-0.529-0.572-0.939-1.012-1.234
		c-0.442-0.292-0.942-0.44-1.499-0.44c-1.205,0-2.056,0.559-2.556,1.669L3.288,55.261c-0.323,0.705-0.374,1.41-0.155,2.113
		c0.219,0.699,0.699,1.218,1.432,1.543c0.763,0.322,1.498,0.343,2.202,0.064c0.704-0.279,1.216-0.79,1.541-1.521l6.738-15.945
		h25.321l1.841,4.313l4.984,11.674c0.322,0.705,0.851,1.195,1.586,1.476c0.734,0.271,1.454,0.257,2.158-0.065
		c0.704-0.324,1.168-0.83,1.387-1.521C52.542,56.7,52.495,55.993,52.173,55.261z"/>
	<path fill="#050505" d="M250.748,55.261l-4.052-9.43l-4.242-9.864l-26.498,0.008l10.307-24.354l3.674,8.644l1.696,3.931
		c0.313,0.688,0.831,1.168,1.552,1.44c0.715,0.27,1.42,0.254,2.104-0.06c0.689-0.32,1.139-0.811,1.355-1.486
		c0.211-0.672,0.166-1.367-0.151-2.082l-3.993-9.203l-3.596-8.359c-0.231-0.529-0.569-0.939-1.014-1.234
		c-0.441-0.292-0.94-0.44-1.498-0.44c-1.205,0-2.057,0.559-2.556,1.669L201.86,55.265c-0.322,0.705-0.373,1.41-0.156,2.111
		c0.222,0.701,0.699,1.22,1.43,1.545c0.766,0.322,1.502,0.342,2.203,0.064c0.703-0.279,1.217-0.791,1.544-1.521l6.737-15.945h25.316
		l1.844,4.313l4.982,11.672c0.322,0.705,0.852,1.195,1.588,1.477c0.731,0.271,1.451,0.258,2.159-0.064
		c0.7-0.325,1.168-0.832,1.386-1.521C251.116,56.704,251.069,55.993,250.748,55.261z"/>
</g>
</svg>
